<?xml version="1.0" standalone="no"?>
<!DOCTYPE svg PUBLIC "-//W3C//DTD SVG 20010904//EN" "http://www.w3.org/TR/2001/REC-SVG-20010904/DTD/svg10.dtd">
<svg version="1.0" xmlns="http://www.w3.org/2000/svg" width="640.000000pt" height="640.000000pt"
  viewBox="0 0 640.000000 640.000000" preserveAspectRatio="xMidYMid meet">
  <g transform="translate(0.000000,640.000000) scale(0.100000,-0.100000)" fill="#000000" stroke="none">
    <path d="M1983 4573 c-14 -3 -25 -14 -29 -30 -5 -17 -9 -21 -14 -12 -13 21
-117 13 -210 -15 -285 -87 -390 -227 -390 -518 0 -123 26 -293 58 -388 71 -207
194 -328 397 -392 92 -29 264 -31 340 -4 148 53 260 129 400 270 123 123
207 242 285 401 67 136 84 206 78 325 -7 148 -56 225 -180 283 -65 31 -185 62
-297 76 -80 10 -391 13 -438 4z m-106 -49 c-3 -3 -12 -4 -19 -1 -8 3 -5 6 6 6
11 1 17 -2 13 -5z m-60 -10 c-3 -3 -12 -4 -19 -1 -8 3 -5 6 6 6 11 1 17 -2 13
-5z" />
    <path d="M1908 4553 c7 -3 16 -2 19 1 4 3 -2 6 -13 5 -11 0 -14 -3 -6 -6z" />
    <path d="M3871 4539 c-176 -21 -321 -82 -378 -157 -40 -53 -53 -95 -60 -197
-7 -106 14 -200 70 -319 90 -190 178 -317 312 -450 229 -227 441 -305 671
-246 287 73 421 242 484 608 23 129 26 256 8 331 -15 68 -70 177 -86 173 -8
-1 -11 2 -8 6 3 5 -5 21 -18 36 l-23 27 -31 -29 c-20 -19 -32 -40 -32 -56 0
-16 -6 -26 -15 -26 -8 0 -15 5 -15 11 0 5 -15 16 -32 24 -18 7 -51 31 -73 52
-22 22 -50 45 -63 52 -12 7 -20 16 -17 22 4 5 -1 12 -9 15 -19 7 -21 41 -4 46
7 3 40 -3 72 -13 33 -10 62 -17 64 -15 2 2 -14 9 -35 16 -21 6 -53 18 -71 26
-18 9 -81 26 -140 40 -90 21 -138 26 -302 29 -107 2 -229 0 -269 -6z" />
    <path d="M4744 4396 c32 -23 43 -36 34 -40 -10 -5 -10 -7 0 -12 6 -3 10 -10 6
-15 -3 -5 2 -9 10 -9 8 0 20 9 25 19 11 19 4 30 -29 45 -8 3 -28 15 -45 25
-51 33 -51 23 -1 -13z" />
    <path d="M2866 3872 c-3 -5 1 -9 9 -9 8 0 12 4 9 9 -3 4 -7 8 -9 8 -2 0 -6 -4
-9 -8z" />
    <path d="M2715 2749 c-154 -15 -221 -36 -344 -110 -34 -22 -65 -39 -67 -39 -2
0 -65 -44 -141 -97 -209 -146 -250 -173 -317 -204 -118 -55 -208 -57 -282 -7
-87 59 -62 223 45 295 42 29 90 29 142 2 23 -11 43 -18 46 -16 12 12 -35 61
-81 85 -121 62 -255 12 -355 -133 -91 -132 -82 -322 23 -469 82 -115 189 -181
376 -232 99 -27 115 -29 295 -28 204 1 317 15 485 60 130 34 279 88 375 136
94 47 116 62 212 140 l71 58 54 -43 c125 -102 256 -171 428 -228 444 -145 848
-147 1128 -7 104 52 171 111 222 197 73 124 89 257 44 371 -24 61 -96 148
-158 190 -48 33 -56 35 -131 35 -72 0 -84 -3 -124 -30 -76 -52 -85 -93 -12 -56
51 27 84 26 132 -1 58 -33 92 -90 97 -166 6 -86 -8 -115 -71 -147 -63 -31
-132 -33 -206 -4 -83 31 -101 42 -321 188 -224 149 -380 233 -468 252 -31 7
-120 13 -197 14 -128 0 -147 -2 -225 -29 -47 -16 -109 -44 -138 -63 l-53 -34
-62 34 c-74 42 -201 83 -277 90 -30 2 -95 1 -145 -4z" />
  </g>

</svg>